<?xml version="1.0" encoding="utf-8"?>
<!-- Generator: Adobe Illustrator 18.0.0, SVG Export Plug-In . SVG Version: 6.00 Build 0)  -->
<!DOCTYPE svg PUBLIC "-//W3C//DTD SVG 1.1//EN" "http://www.w3.org/Graphics/SVG/1.1/DTD/svg11.dtd">
<svg version="1.1" id="Layer_1" xmlns="http://www.w3.org/2000/svg" xmlns:xlink="http://www.w3.org/1999/xlink" x="0px" y="0px"
	 viewBox="0 0 500 460.9" enable-background="new 0 0 500 460.9" xml:space="preserve">
<g>
	<polygon fill="#FFFFFF" points="433.5,104.1 357,104.7 357.3,104.9 196.7,191.3 255.7,104 205,104 58.8,320 109.3,320 171.5,228.3 
		202.3,228.4 	"/>
	<path fill="#FFFFFF" d="M478.7,74.1c-16.4-24.2-39.4-42.5-67.5-55.1C384.8,7.2,354.8,1.1,322.1,1.1c-62.1,0-127.9,22.1-185.3,62.1
		c-59.2,41.3-103.2,97.1-124,157.1C-8.7,282.6-3,342.1,28.9,387.9c16.7,24,39.8,42.5,67.8,55.1c26.5,11.9,55.7,17.9,89.5,17.9
		c61.4,0,137.8-28.4,198.5-92.9c-68.3,41.5-144.7,54.5-198.5,54.5c-55.3,0-100-20.1-125.4-56.6C36.1,330.5,31.9,283.3,49.3,233
		c18.2-52.5,57-101.5,109.6-138.2c51.1-35.6,109-59.8,163.3-59.8c55.2,0,104,21.3,126.6,59.6c32.3,54.9,12.3,130.9-22.2,164.7
		c-35.3,34.5-78.3,61.2-113.5,32.9L252.3,228h-50.7c0,0,61.7,65,87.5,92.1c33.1,34.8,98.8,24.7,144.4-21.3
		C509.5,222.2,514.1,126.4,478.7,74.1z"/>
</g>
</svg>
