<svg id="Layer_1" data-name="Layer 1" xmlns="http://www.w3.org/2000/svg" viewBox="0 0 963 688"><title>Artboard 1</title><path d="M648.48,440.84c1.7-1.66,3.1-3.73,5.86-3.84s3.26.54,4.34,3.06,1,4.64-.93,6.67c-.42.44-.38,1.28-.76,1.79a11.25,11.25,0,0,1-2.19,2.32c-.73.55-2.36.46-.92,2a23.33,23.33,0,0,1-3.59,3.49,60.06,60.06,0,0,1-5.51,2.51,2,2,0,0,0-1,1.44,2.23,2.23,0,0,1-2.15,2.48,18.16,18.16,0,0,0-5.32,2.09c-4.5,2.24-9.2,4.07-13.8,6.09-2.2,1-4.36,2-6.55,3-1.19.53-2.41,1-3.59,1.52-.91.41-1.8.87-2.7,1.31-.5.25-1,.74-1.48.74-3.33,0-5.75,2.32-8.68,3.34-2.14.74-4.13,1.89-6.24,2.72-5.09,2-10.23,3.84-15.3,5.87-2.31.93-4.44,2.29-6.73,3.25-4.79,2-9.6,4-14.48,5.73a84.43,84.43,0,0,1-10.94,3.21c-7.77,1.65-15.57,3.16-23.61,2.27-6.15-.68-12.21-1.74-17.7-4.71a71.45,71.45,0,0,1-8.52-5.67c-.91-.68-1.32-2-2-3-1.44-2-3.19-2.11-4.79-.17s-2.52,4.17-4.4,5.93a65,65,0,0,1-16.71,11.46c-1.42.67-3.57.35-4.53,1.32a10.24,10.24,0,0,1-4,2.34,105.55,105.55,0,0,1-11.73,4.06c-5.42,1.33-10.31,4-15.72,5.42-7.79,2-15.61,3.88-23.6,4.53-4.11.33-8.46.43-12.51-1.16-.44-.17-.94-.5-1.33-.4-2.74.66-5-.82-7.47-1.39a20.84,20.84,0,0,1-8.29-3.92c-3.13-2.46-5.82-5.37-7-9.43-.56-1.92-2.18-3.59-2.51-5.51-1.05-6.25-3.56-12.36-2.28-18.91a1.44,1.44,0,0,0-.86-1.14,1.52,1.52,0,0,0-1.21.84c-.76,2.85-1.41,5.73-2.07,8.61a70.3,70.3,0,0,1-6.76,18.63,6.17,6.17,0,0,1-2.43,2.22c-1.87,1-3.87,1.77-5.81,2.63-.26.11-.66.07-.79.25-2.33,3.1-5.69,2.41-8.72,2.07-3.77-.42-7.68-.8-11-3a20.19,20.19,0,0,1-6.22-7.29c-1.6-2.91-3.39-5.71-5-8.63-.76-1.39-1.21-2.94-1.84-4.41-.35-.83-.78-1.63-1.16-2.45a8,8,0,0,1-.74-1.78A42.51,42.51,0,0,0,309,480.46c-1.11-2.32-1.48-5-2.17-7.51-.07-.27,0-.61-.17-.82-.71-1-1.47-2-2.21-3.06-.9.84-2.11,1.53-2.63,2.57a12,12,0,0,0-1.45,5c0,4.76-2.78,8.71-3.49,13.25-.47,3-1.21,6-1.77,9-1,5.6-2,11.22-3.06,16.81A21,21,0,0,1,290.4,521c-1.34,2.67-4.17,2.49-6.63,2.93a9.9,9.9,0,0,0-2.83.71c-4.13,2.15-8,.89-11.75-.91-.67-.32-1.23-.9-1.92-1.17-1-.4-2-.4-2.41,1q-.94,3.2-2,6.36a4.75,4.75,0,0,1-1.11,2.14,27.73,27.73,0,0,1-12.34,5.72,7.39,7.39,0,0,1-2.5-.1c-2-.32-4.06-.7-6.08-1.1-3.56-.69-4.83-2.58-5-6.83-.12-3-.51-5.9-.81-8.85a2.19,2.19,0,0,0-.41-1c-4.23-5.66-8.71-11.15-12.62-17-2.34-3.52-5.65-5.85-8.56-8.66-2.07-2-4.44-3.69-6.53-5.69-1.37-1.31-2.6-.94-3.75,0-3,2.37-6.54,4.37-8.52,7.41s-5,5-7.17,7.68a24.3,24.3,0,0,0-3.76,6.41c-2,5.34-3.7,10.8-5.47,16.22a13.17,13.17,0,0,0-.32,2.49c-.59,5-1.87,9.66-5.83,13.14-.34.3-.67.73-1.06.81-3.25.7-6.5,1.5-9.8,1.92a7.09,7.09,0,0,1-3.68-1.05,32.72,32.72,0,0,1-5.73-3.4,4.54,4.54,0,0,1-1.64-5.28,4.4,4.4,0,0,0-.43-2.66c-.48-1.2-1.31-1.79-2.65-.92-1.87,1.2-3.77,2.36-5.71,3.45a20.82,20.82,0,0,1-4.73,2.28c-2.59.67-5.3.87-7.95,1.34-2.27.41-4.51,1-6.8,1.36-4.44.64-8.91,1.2-13.35.13-5.11-1.23-10-3-14-6.61a16.44,16.44,0,0,1-5.65-11,120,120,0,0,1-.42-16.44c.26-7.19,1.53-14.24,2.13-21.37.11-1.27,0-2.56,0-4-1.67,0-2.3,1.07-2.89,2.1-1.95,3.39-3.52,7-5.85,10.14-2.09,2.79-3.31,6-5.33,8.84-2.21,3.09-3.55,6.78-5.47,10.1-2.43,4.21-5.12,8.27-7.57,12.47-1.74,3-3.21,6.13-4.92,9.14s-3.84,5.95-5.38,9.1c-2,4.18-5.49,7.07-8.68,10.2-1.17,1.15-2.94,1.7-4.07,2.88a14.23,14.23,0,0,1-5.36,3.27c-3.19,1.26-5.43.84-8.11-1.54a14.8,14.8,0,0,0-4.41-2.84c-2.31-.87-3.32-2.46-3.15-4.68.14-1.78-.12-3.77,1.55-5.2a2.42,2.42,0,0,0,.56-1.75c-.1-2.28.89-4.15,1.86-6.1a24.2,24.2,0,0,0,1.81-5.21,22.69,22.69,0,0,1,1.59-4.69c1.76-3.67,3-7.58,4.45-11.41,1-2.7,2-5.41,2.86-8.14s1.66-5.56,2.53-8.32c1.26-4,2.68-8,3.84-12a163.52,163.52,0,0,1,6.17-17.15c2.17-5.24,3.51-10.82,5.4-16.18,1.08-3.06,2.55-6,3.78-9,1.74-4.24,3.51-8.46,5.12-12.75,3.11-8.31,5.83-16.78,9.25-25C73,400,75.52,393.1,78.29,386.3s5.41-13.5,8.13-20.25c.34-.85.87-1.62,1.17-2.48,1.08-3,2-6.09,3.16-9.08.63-1.65,1.59-3.17,2.28-4.81,2-4.69,3.86-9.44,5.91-14.1.9-2,2.46-3.85,3.12-6s2.59-3.77,2.59-6.2a1.43,1.43,0,0,1,.74-1.05c2.7-1.08,5.41-2.08,8.38-.74a6,6,0,0,0,3,.59c2.84-.35,5.27.71,7.71,1.84.49.23,1.15.54,1.29,1,.89,2.68,1.67,5.22.39,8.23s-3.42,5.56-4.59,8.48c-1.6,4-4.28,7.28-6.22,11a6.31,6.31,0,0,0-.65,2.14,4.65,4.65,0,0,1-2,3.51,2.72,2.72,0,0,0-1.1,1.79c-.12,2.89-1.4,5.27-2.72,7.75-2,3.74-3.62,7.66-5.35,11.53-.55,1.24-.89,2.57-1.4,3.82-3.24,8-6.82,15.87-9.32,24.18-.92,3.06-2.84,5.82-4.31,8.72-.29.58-.9,1.16-.87,1.72.23,4.15-1.77,7.44-3.66,10.9-1.21,2.21-1.58,4.87-2.41,7.29-1.08,3.17-2.23,6.31-3.35,9.46q-2.75,7.74-5.5,15.48c-.18.49-.57.91-.74,1.4-.42,1.22-.81,2.45-1.11,3.71-.07.28.2.87.41.92a1.51,1.51,0,0,0,1.25-.22A16.15,16.15,0,0,0,74.74,464c2-3.44,3.8-6.94,5.69-10.43,0-.08,0-.23.06-.27,4.1-2.92,4.71-8.11,7.7-11.83s5.17-8.33,7.7-12.54a10.83,10.83,0,0,1,.83-1.11c1-1.21,2-2.41,2.9-3.63,1.31-1.7,2.63-3.39,3.84-5.16.7-1,1.69-2.23,1.65-3.31-.06-1.78.91-2.47,2-3.38A5.5,5.5,0,0,0,109,410a14.82,14.82,0,0,1,3.36-5.27c2.59-3,4.85-6.37,7.21-9.6.93-1.28,1.78-2.62,2.67-3.92,1-1.54,2.09-3.08,3.15-4.61,2.54-3.64,5.17-7.22,7.63-10.92,3-4.43,5.81-8.93,8.63-13.44,2.68-4.28,5.28-8.62,7.9-12.94.38-.63.59-1.37,1-1.95a8.4,8.4,0,0,1,2-2.1c1.3-.83,2.54-1.57,2.8-3.29a3,3,0,0,1,.81-1.44c2.86-3.18,5.56-6.52,8.69-9.41a28.84,28.84,0,0,1,7.09-4.48,3.86,3.86,0,0,1,3.34.79c3.56,3.14,7.25,6.2,9.7,10.39a2.51,2.51,0,0,1,.48,1.29c-.29,3.52-.8,7-3.31,9.75s-5.08,5.71-7.63,8.56c-2.11,2.36-4.31,4.65-6.32,7.09-1.65,2-3.12,4.19-4.59,6.34-2.68,3.92-5.28,7.89-7.94,11.81-1.66,2.44-3.41,4.82-5,7.27-1,1.52-1.9,3.13-2.8,4.72-1.83,3.25-3.51,6.6-5.48,9.76a39.42,39.42,0,0,0-4.65,9.82,1.1,1.1,0,0,1-.08.27c-2.72,4.42-4,9.45-6.06,14.15-1.19,2.73-2.59,5.38-3.67,8.15-.84,2.16-1.28,4.48-2,6.69a31.79,31.79,0,0,1-2,5.14c-1.89,3.5-2.35,7.37-3.33,11.12-.39,1.49-1.25,2.86-1.59,4.35q-1.26,5.55-2.22,11.17c-.57,3.32-1,6.67-1.41,10a9,9,0,0,1-.12,1.4c-1.69,5.5-1.77,11.14-1.8,16.84a39.1,39.1,0,0,0,.88,8,5.43,5.43,0,0,0,5.49,4.52c4.6.16,8.79-1.53,13.11-2.71,5-1.39,9.46-3.92,13.82-6.68,2.48-1.57,5.14-2.86,7.7-4.31a4,4,0,0,0,.78-.8l.93.84.17-.34-1.18-.33c3.34-2.51,6.7-5,10-7.54a4.08,4.08,0,0,0,1.5-1.64c1.35-4.14,4.57-7.33,5.54-11.72.54-2.47,2.09-4.72,3.15-7.08,3.2-7.1,6.26-14.27,9.61-21.3,2.24-4.7,5.16-9.09,7.23-13.86,1.48-3.41,4.09-6.31,4.61-10.15a5.11,5.11,0,0,1,.69-1.83c4.73-8.07,8.56-16.59,12.46-25.07,1.63-3.55,3.7-6.89,5.57-10.33a2,2,0,0,0,.27-.49c.86-4.29,4.21-7.22,6-11a43.46,43.46,0,0,0,2.39-5.94c.84-2.8,2.59-5.07,3.94-7.58a103.52,103.52,0,0,0,5.75-11.82,101.7,101.7,0,0,1,5.76-12.37c1.83-3.34,2.53-7.11,3.76-10.68a10.51,10.51,0,0,1,1.7-2.4c.65-.9,1.33-1.78,2-2.7.82-1.21,1.49-2.54,2.4-3.66,1.35-1.67,2.86-3.21,4.32-4.8,2.19-2.39,4.29-2.67,6.93-.84,3.66,2.52,7.06,5.34,9.12,9.38a9.41,9.41,0,0,1,1.12,4q.1,6.74-.23,13.48a34.6,34.6,0,0,1-1,5.46c-.58,2.72-2,5.55-1.64,8.11.71,4.63-1.29,8.73-1.45,13.13a58.6,58.6,0,0,1-.83,8.89c-1,5.14-.78,10.39-1.71,15.52-.43,2.36-1.42,4.53-1.34,7.1.17,5-.27,10-.45,15a5.32,5.32,0,0,1,0,1.09c-1.43,5.6-1,11.34-1.43,17-.2,2.8-.77,5.53,0,8.34.4,1.43,1.1,2.59,2.62,2.39,3.67-.47,6,1.71,8.59,3.72a5.08,5.08,0,0,0,2.7,1.15,5,5,0,0,1,4.71,3.32,21.18,21.18,0,0,0,1.65,2.53,20.14,20.14,0,0,0-2.69,1c-.92.5-2,.55-2.54,1.93s-1.62,1.19-3.22,0c-.86,2.84-3.49,2.65-5.65,3.29-2.4.71-5,1-6.32,3.59a3.9,3.9,0,0,0-.41,1.7c.07,5,.18,10.09.29,15.13,0,2.24.12,4.47.14,6.71,0,1.77-.06,3.54,0,5.3.07,1.94.25,3.88.37,5.82,0,.65,0,1.3.08,2,.15,2.88.13,5.78.51,8.63.2,1.46.73,2.8.11,4.29-.15.36.21,1.34.46,1.39a2.08,2.08,0,0,0,1.68-.4c1.27-1.34,2.67-2.68,2.33-4.85a2.39,2.39,0,0,1,.35-1.23c.2-.41.75-.81.71-1.16-.63-5,2.47-8.9,3.59-13.38,2-7.86,4.3-15.63,6.52-23.43s4.58-15.43,6.66-23.2c1.21-4.51,1.9-9.14,3-13.69.66-2.79,1.66-5.51,2.36-8.29,1-3.79,1.93-7.6,2.6-11.45,1.22-7,2.43-14,3.22-21,.41-3.65,1.27-7.35.35-11.11-.22-.9.46-2,.44-3a50.09,50.09,0,0,0-.48-7.16c-.42-2.53,1.09-4,2.42-5.67.46-.58,1.17-1,1.46-1.67,1.35-3,4-4.79,6.43-6.74.22-.17.53-.34.6-.57,1.08-3.24,4-2.9,6.36-2.86,2.67.05,4.4,2,5.6,4.4a5.35,5.35,0,0,0,2,2.11,9.42,9.42,0,0,1,4,4.34,12.66,12.66,0,0,1,1.12,8.89,8.37,8.37,0,0,0,.18,1.94,68.82,68.82,0,0,1,.19,7c-.26,4.28-.68,8.54,0,12.82a8.73,8.73,0,0,1,0,1.4c0,1.84,0,3.67,0,5.51.1,5.32.26,10.64.32,16,.07,6.35.11,12.68,1.41,18.94.45,2.17.2,4.48.55,6.69.62,3.94,1.32,7.88,2.24,11.76,1,4.26,2.63,8.39,3.35,12.69a24.76,24.76,0,0,0,3.88,9.48,41.64,41.64,0,0,1,2.24,4.6l.63,0a14.37,14.37,0,0,0,.8-2.21c.77-4,2.59-7.74,2.66-12,0-2.14,1.29-4.24,1.88-6.39s1.16-4.44,1.61-6.68c.86-4.22,1.22-8.6,2.54-12.66,1.8-5.53,2.1-11.32,3.59-16.9,1.08-4,1.18-8.31,2.24-12.35,1.22-4.66,1.16-9.55,3.05-14.12,1.07-2.6,1-5.68,1.45-8.53.47-2.66.95-5.32,1.6-7.94,2-7.89,4.16-15.73,6-23.64a62.33,62.33,0,0,1,5.34-15,3.26,3.26,0,0,0,.35-1.91c-.43-2.64,1-4.37,2.64-6.13,1.11-1.23,1.95-2.71,3.06-3.93,1.8-2,3.67-3.86,5.62-5.67,1-1,2-.08,2.66.67,2.36,2.6,5.29,4.72,6.84,8a2.74,2.74,0,0,0,.75.81c2.43,2.06,2.9,3.75,1.85,6.82-.9,2.66-1.88,5.29-2.73,8-2.45,7.74-4.88,15.48-7.23,23.25-.63,2.06-1,4.2-1.44,6.31-1.32,6.18-2.7,12.34-3.92,18.54-.88,4.49-1.5,9-2.31,13.54-.24,1.37-.75,2.69-1.08,4-.45,1.88-1.22,3.77-1.2,5.65,0,4.78-1.71,9.18-2.51,13.77-.78,4.41-1.54,8.82-2.23,13.24-.07.48.43,1.05.66,1.58.42-.4,1.06-.73,1.22-1.22,1.43-4.32,2.79-8.66,4.14-13,.82-2.67,1.57-5.36,2.35-8a3.92,3.92,0,0,1,.15-.54c1.26-2.74,2.79-5.29,3.23-8.46.39-2.78,1.85-5.41,2.82-8.11a105.67,105.67,0,0,0,3.57-10.27c1.74-7.09,5.38-13.42,7.75-20.26,1.24-3.58,3.33-6.86,5-10.3a21.11,21.11,0,0,0,2.18-5.36,5.83,5.83,0,0,0-1.31-3.78,2.9,2.9,0,0,1-.18-3.76c1.47-2.49,2.58-5.19,3.85-7.79.2-.41.44-1.12.7-1.13,2.52-.18,3-3,5-3.79a1.23,1.23,0,0,0,.69-.81c.17-2.46,1.56-3.75,3.71-4.8.89-.44,3.08-1.49,1.28-3.44a.65.65,0,0,1,0-.54c.48-1.22,2.66-.6,2.6-2.53-.07-2.37,2-.88,3.15-1.64a2.18,2.18,0,0,1,1.46-2.84c.89-.36,1.5-1.37,2.29-2a20.87,20.87,0,0,1,1.77-1.19c.52-.35,1.24-.58,1.5-1.07,1.09-2,2.85-2.94,4.94-3.72a5,5,0,0,1,5.78,1.12,53.26,53.26,0,0,0,4.89,3.59c.36.26,1,.69,1,.82-.84,2.18.86,2.49,2.18,3.15a2.28,2.28,0,0,1,.77,1.05c1.34,2.73,3.06,3.35,6.08,2.92s6.29-.39,9.44-.61c1.57-.11,3.12-.5,4.69-.53,5.46-.09,10.93-.59,16.37.45a7.42,7.42,0,0,0,1.87-.14c1.31-.1,2.61-.25,3.92-.29q6.14-.18,12.29-.29c2.32,0,4.64,0,7,0,.92,0,1.85-.15,2.77-.2,4.34-.21,8.69-.62,12.89.93a3.92,3.92,0,0,1,1.74,1.33c1.11,1.56,2.24,3,4.24,3.5.52.14,1,.84,1.29,1.37.63,1,1.17,2,1.73,3.08a4,4,0,0,1-1.28,4.27c-1.77,1.14-3.35,2.61-5.73,2.71a15.72,15.72,0,0,0-4.55,1.3A44.26,44.26,0,0,1,515,354.31c-4.37.42-8.64,1.73-13,2.27-3.7.46-7.47.36-11.2.54-4,.19-8,.44-11.94.61-3.35.15-6.7.16-10,.37-4.08.25-8.17.5-12.22,1a94.42,94.42,0,0,0-11.87,2.09c-2.66.69-5.13,2.13-7.66,3.28-4.06,1.83-5.51,5.85-7.66,9.26-1.54,2.43-2.94,4.95-4.38,7.44-.33.56-.61,1.15-.88,1.74-2.55,5.49-5.16,10.95-7.6,16.49-1.09,2.48-1.82,5.11-2.75,7.66-1.05,2.87.73,4.59,2.5,6.32a5.5,5.5,0,0,0,.48.29c1.21.95,2.43,2.74,3.6,2.71,4.69-.12,9.44,1.53,14.11-.32,1.36-.54,2.91-.58,4.33-1s2.71-1.13,4.11-1.57c5-1.55,9.95-3,14.87-4.59,1.93-.64,3.69-1.8,5.6-2.54,2.77-1.07,5.55-2.55,8.41-2.79a14.8,14.8,0,0,1,9.42,2c1.2.79,2.15,1.88,1.16,3.52-.23.39-.57.94-.46,1.28,1.17,3.55-1.43,5.38-3.48,7.25-4.32,3.93-9.8,5.95-14.86,8.66-1.53.82-4.22.54-4.5,3.31,0,.3-.89.62-1.41.74-2.45.56-4.85,1.17-6.82,2.87a4.24,4.24,0,0,1-1,.43c-3.3,1.51-6.54,3.18-9.92,4.49-2.62,1-5.44,1.52-8.13,2.39-5.32,1.72-10.88,1.08-16.31,1.67a17.06,17.06,0,0,1-9.9-2.42c-1.18-.65-1.69-.47-2.23.5a15.26,15.26,0,0,0-1.38,2.73c-.67,2.11-1.23,4.26-1.78,6.41-.47,1.81-.86,3.64-1.29,5.46a14,14,0,0,1-.77,3,25.7,25.7,0,0,0-2.21,9.45c-.23,2.6-1.25,5.14-1.44,7.74-.32,4.32-.75,8.72-.2,13,.36,2.77,0,6.27,3,8.21,1.54,1,3.07,2.37,4.77,2.68,4.86.88,9.81,1.3,14.72,1.91,3.08-2.09,6.85-1.05,10.15-2.23,1.2-.43,2.53-.51,3.74-.93,4.83-1.65,9.53-3.78,14.47-5,6.15-1.46,11.66-4.42,17.53-6.51A51.41,51.41,0,0,0,476.77,479a69.64,69.64,0,0,0,5.89-4.7,10.47,10.47,0,0,0,3.32-7.76,71.77,71.77,0,0,1,3.48-21.9c1.83-5.5,4.12-10.78,6.21-16.15a91.52,91.52,0,0,1,7.08-14.62c3.26-5.31,5.45-11.22,9.55-16.12,2.82-3.36,4.5-7.65,6.76-11.48,1.33-2.25,2.8-4.42,4.25-6.6,2.49-3.74,4.78-7.65,7.57-11.15,4.27-5.37,8.92-10.44,13.35-15.69,1.66-2,3.13-4.1,4.73-6.12a10,10,0,0,1,1.41-1.33c.57-.49,1.5-.83,1.7-1.42.92-2.74,3.84-3.34,5.44-5.36a30.86,30.86,0,0,1,5.4-5.62c3.88-2.93,7.48-6.19,11.68-8.8C578,322,581.55,320,585,318a10.69,10.69,0,0,1,2.33-.9c6.29-1.92,12.22-.91,17.81,2.33a7.88,7.88,0,0,1,2.41,2.63,42.46,42.46,0,0,1,3.66,6.44,22.67,22.67,0,0,1,1.59,6.63c.08,1-1.12,2-1.61,3.12-1.58,3.54-2.84,7.26-4.73,10.62-1.43,2.55-3.62,4.67-5.47,7-.06.07-.12.19-.19.19-4.16.39-5.43,4.33-8,6.6-1.34,1.17-2.22,2.87-3.52,4.11a31,31,0,0,1-11.49,6.44c-1.5.52-2.86,1.4-4.32,2.06-2.89,1.31-4.25.85-5.86-1.89a2.74,2.74,0,0,0-.92-1.05c-1.64-.87-1.48-1.72-.38-3.06,3.52-4.29,6.93-8.69,10.32-13.09a16.21,16.21,0,0,0,1.21-2.51c.51-1,1.16-1.9,1.58-2.92a6.79,6.79,0,0,0,.2-2,6,6,0,0,0-2,.44,11.84,11.84,0,0,0-1.78,1.78c-1.65,1.64-3.28,3.31-5,4.91-1.34,1.27-2.89,2.34-4.13,3.7-3.9,4.28-7.82,8.55-11.47,13-2.53,3.09-4.63,6.53-6.93,9.81a5.29,5.29,0,0,1-.81,1.14c-4.09,3.32-6.55,7.78-9,12.34-2.33,4.35-5.24,8.39-7.83,12.6-1,1.64-1.82,3.39-2.76,5.08a167.58,167.58,0,0,0-9.38,20,28.2,28.2,0,0,1-1.6,2.64,3.25,3.25,0,0,0-.59,1.8c.42,2.35-.77,4.13-1.85,6-.14.23-.55.49-.51.62.88,2.64-1.15,4.69-1.38,7.05a39.35,39.35,0,0,0,.1,7.21,48.51,48.51,0,0,0,1.23,8.25,24.08,24.08,0,0,0,2.91,6.49,9.14,9.14,0,0,0,3.66,3.26,23.24,23.24,0,0,0,9.94,2.25c3.37,0,6.67-.51,10-.54,1.68,0,3.32-1.2,5.12-.42,2.68-2.31,6.79-1.14,9.31-3.84,3.15.6,5.38-1.79,8.13-2.5,1.42-.37,2.88-.54,4.3-.89a2.77,2.77,0,0,0,1.06-.77c.2-.18.4-.69.43-.68,2,.84,2.86-1.13,4.32-1.61,1.68-.55,3.26-1.43,4.92-2.06a20.23,20.23,0,0,1,3.26-.87c3.53-.69,6.68-2.28,9.89-3.81,2.92-1.39,6.08-2.3,9.12-3.45,1.83-.69,3.6-1.54,5.45-2.14,4.86-1.58,9.78-2.94,14.6-4.61,3.61-1.25,7.1-2.85,10.65-4.27a4.06,4.06,0,0,1,1.35-.37c2.94-.08,5.21-1.85,7.73-3,.59-.27,1.22-.45,1.81-.7,1.43-.6,2.82-1.33,4.3-1.8a7,7,0,0,1,2.32.06l-.62.66.2.13Zm-429.36,15a26.87,26.87,0,0,1,3.62-1.63c3-.94,6.09-1.71,9.15-2.5a4.28,4.28,0,0,0,3.4-3.74c.25-4.74.34-9.5.63-14.24.3-4.9.75-9.79,1.15-14.68.23-2.89.5-5.78.71-8.67.16-2.24-.19-4.63.52-6.67a30.39,30.39,0,0,0,1.1-6.83,2.28,2.28,0,0,0-.69-1.9c-.44-.23-1.39.19-1.93.58a4,4,0,0,0-1.08,1.57c-2.86,6.07-5.61,12.19-8.55,18.22-2.24,4.58-4.71,9-7.08,13.57-.69,1.32-1.46,2.6-2.09,3.95-1.14,2.46-2.17,5-3.31,7.43-1.91,4.14-3.92,8.23-5.77,12.4-.77,1.74-.27,2.39,1.6,2.53Zm16.61,23.49a11.33,11.33,0,0,0-2.13-2.87c-.66-.47-2.72,1.72-2.65,2.68a3,3,0,0,0,2.74,2.76C235.42,482,235.34,480.8,235.73,479.35Zm132.17,1.23c.19-.63.33-1,.4-1.37.22-1.18.45-2.36.58-3.55,0-.27-.35-.85-.5-.83-.39,0-1,.25-1.1.51a26.3,26.3,0,0,0-.56,3.75C366.7,479.35,367.12,479.64,367.9,480.59Zm1.24-10.86c-.31.18-.71.3-.72.45a22.53,22.53,0,0,0-.11,2.61,2.87,2.87,0,0,0,.74,0,18.71,18.71,0,0,0,.44-2.33C369.5,470.29,369.28,470,369.14,469.73Zm228.27-10-.09-.21c-.07,0-.18,0-.19.1s0,.13.08.2ZM372.61,456c-.08,0-.16-.12-.23-.11s-.11.13-.16.2l.37.17Z"/><path d="M389,126.89c-1.56,2.72-3.26,5.38-4.61,8.19-.74,1.53-1.65,1.76-3.12,1.6a2.69,2.69,0,0,0-2.7,3.82c1.23,2.95.76,5.12-1.53,7.21-.45.41-1.11.92-1.13,1.41-.16,2.87-2.58,3.89-4.39,5.23a4.08,4.08,0,0,0-2,2.44,34.07,34.07,0,0,1-1.63,4.54c-1.76,4.39-3.47,8.8-5.36,13.14-1.46,3.36-2.35,7-3.92,10.19-1.9,3.85-2.34,8-3.79,11.92a36.62,36.62,0,0,0-2.37,11.57,4.12,4.12,0,0,1-1.25,2.69,1.31,1.31,0,0,0-.41,1.89,5.11,5.11,0,0,1,.13,3.75c-.82,3.22-1.22,6.55-1.82,9.83a17.68,17.68,0,0,1-.65,2.43,23.87,23.87,0,0,0-1.3,11.1,5.05,5.05,0,0,1-.5,3.24c-1.08,1.62-.9,3.27-.83,5,.15,3.72.2,7.45.5,11.17a20.4,20.4,0,0,0,1.26,5.41A2.73,2.73,0,0,0,349.7,266c3.37-.12,6.68-.56,9.69-2.42,4-2.49,8.28-4.61,12.2-7.25a32.76,32.76,0,0,0,6.75-6.15c1-1.26,1.32-3.29,1.59-5,.3-1.93.1-3.92.3-5.87a31.29,31.29,0,0,1,.89-3.19c.5-2.35.93-4.71,1.38-7.06A81.75,81.75,0,0,1,387.82,212c1.59-3.69,2.58-7.62,4-11.37,1.59-4.09,3.41-8.09,5.14-12.13.29-.69.87-1.36.87-2,0-3.37,2.31-5.56,4.07-8a7.65,7.65,0,0,0,1.62-3.74c.17-1.32,1.41-2.52,2.21-3.75.14-.21.53-.25.68-.46,1.91-2.76,3.76-5.55,5.69-8.3,1.32-1.89,2.68-3.77,4.11-5.57,2.15-2.7,4.45-5.29,6.58-8a25.75,25.75,0,0,1,7.23-6.63,45.73,45.73,0,0,0,5.18-4.1,1.55,1.55,0,0,1,.71-.41c4.52-.36,9-2.67,13.53-1.12,3.06,1,6.23,2.29,8.24,5.08a46.79,46.79,0,0,0,10,9.69,106.27,106.27,0,0,1,13.23,12,61.53,61.53,0,0,1,6.25,8.56c1.34,2,2,4.6,2.73,7s2,4.84,1.79,7.57c0,.66.65,1.34.77,2.05a32,32,0,0,1,.72,6.22c-.15,3.59-.61,7.17-1.08,10.74a15.54,15.54,0,0,1-1.18,4.83c-1.47,3-.89,6.65-3.39,9.28-.63.67-.54,2-1,2.89-1.19,2.5-2.39,5-3.79,7.39C482,231,480.17,232,480,233.36a9.1,9.1,0,0,1-2.26,4.29c-1.84,2.42-3.69,4.83-5.62,7.18-.73.89-1.32,2-2.88,1.94-.35,0-1,1-1.11,1.66a3.09,3.09,0,0,1-2.5,3,.72.72,0,0,1-.27,0c-.21,3.41-4.77,2.7-5.43,5.73-.06.3-.49.57-.8.75-4.74,2.73-8.27,7.22-13.47,9.31a24.68,24.68,0,0,0-4.81,2.29c-3.62,2.49-7.87,3.06-11.88,4.43-3.69,1.27-7.25,3-11.14,3.52-2.78.39-5.83-.25-8.37.65-3.81,1.36-6.87.22-10.14-1.26-2.55-1.15-5.29-1.9-7.8-3.13a28.61,28.61,0,0,1-4.51-3.27c-1-.8-2-1.67-3.05-2.49-1.89-1.52-3.48-1.15-5.29.56-3.27,3.08-6.74,6-10.15,8.89a25.93,25.93,0,0,1-6.39,4.49c-.85.38-.94,2.45-2.65,2.43-.7,0-1.59.07-2.05-.31-1-.85-1.62-.56-2.66.12-1.78,1.15-3.69,2.17-6.1,1.35a5.8,5.8,0,0,0-3.49.4,12.63,12.63,0,0,1-9.32-.16,22.4,22.4,0,0,1-9.53-7,6.64,6.64,0,0,1-.92-2.2,25.87,25.87,0,0,1-.75-3.26,34.17,34.17,0,0,1-.4-3.88c-.09-2.24-.11-4.47-.14-6.71s-.08-4.43,0-6.65c0-2-.27-4.07.35-5.84.81-2.33.32-4.39-.17-6.54-.17-.73-.71-2-1-2a8.29,8.29,0,0,0-2.76,1,1.05,1.05,0,0,0-.46.69c-.36,1.81-1.52,2.16-3.13,1.85a12,12,0,0,0-2,0c.74,1,1.69,1.65,1.76,2.42s-.77,1.6-1.12,2.44c-.67,1.59-1,3.41-3.2,3.71-.19,0-.51.47-.46.56,1,2.05-.9,2.76-1.74,4a70.66,70.66,0,0,1-11.43,13.33c-2.67,2.32-4.53,5.55-6.9,8.26a27.89,27.89,0,0,1-3.59,3,6.49,6.49,0,0,0-1.08.81c-2.84,3.6-7,5.11-11,6.94-1.58.73-3.12,1.57-4.67,2.36-.24.12-.5.43-.71.39-4.69-.77-9.34,2.2-14.05.14-2-.86-4-1.58-6-2.37-.87-.34-1.72-.76-2.61-1-3.06-.94-4.54-3-4.89-6.24-.48-4.5.41-8.87,1-13.26.54-4.14,1.15-8.28,2-12.35.6-2.81,1.74-5.5,2.55-8.27.67-2.3,1.2-4.64,1.79-7-2.08-.56-3.13-.07-4.83,2.1a20,20,0,0,1-3.29,3.4,10.76,10.76,0,0,1-3,1.1c.95,1.57.2,3.28-1.13,4.84q-5.25,6.16-10.53,12.29c-2.69,3.1-5.33,6.25-8.16,9.22a21.44,21.44,0,0,1-3.85,2.59c-.68.45-1.74.8-2,1.43-.83,2.39-2.91,3.62-4.54,5.24-2.1,2.09-4.28,4.1-6.44,6.13-.47.44-1.1,1.23-1.52,1.15-3-.56-3.93,2.18-5.83,3.39-3.2,2-6.46,4-9.84,5.75a47.68,47.68,0,0,1-6.81,2.5c-.94.31-2.5.08-2.84.65-1.39,2.31-3.8,1.52-5.67,2.13a27.17,27.17,0,0,1-6.37.82,57.69,57.69,0,0,1-6.74.19,18.25,18.25,0,0,1-4.08-.9c-2.32-.66-4.6-1.47-6.93-2.1-5.5-1.48-8.94-5.9-13.16-9.2a7.86,7.86,0,0,1-1.45-1.71,4.51,4.51,0,0,0-5.57-1.85c-7.55,2.48-15.14,2-22.63-.05-1.83-.51-3.34-2.27-4.9-3.57-1.07-.89-1.9-2.09-3-3s-2.19-2-1.88-3.71c0-.25,0-.64-.13-.77-3.07-2.57-2.33-6.4-2.91-9.66-.62-3.46-.16-7.12-.08-10.69.09-3.88.29-7.75.44-11.63,0-.19-.11-.41,0-.56,1.72-4,1-8.32,1.45-12.49.19-1.94.78-3.84,1-5.79s-1.21-3-3-2.06c-2.22,1.1-4.39,2.31-6.59,3.48-.33.18-.67.58-1,.54-3.59-.44-6.68,1.3-9.85,2.42a15.49,15.49,0,0,1-7.43.57,40.78,40.78,0,0,1-6.6-1.39c-1.08-.33-1.74-.32-2.44.54s-1.56,1.87-2.38,2.76-1.46,1.41-2.13,2.17a9.52,9.52,0,0,0-1.35,1.9A50.56,50.56,0,0,1,48,246.48a12.16,12.16,0,0,0-2.1,4.8c-.28,1.58-1.3,3-2,4.53S42.48,258.57,42,260c-1.18,3.32-2.19,6.7-3.36,10-.39,1.1-1.17,2.07-1.57,3.17-1.14,3.16-1,6.59-1.85,9.75-.76,3-2.74,5.71-4.48,8.35a6.65,6.65,0,0,1-4.42,3.14,8,8,0,0,0-3.42,1.87c-2.45,2-4.93,1.27-7.66.74-3.51-.69-5.06-3.64-7.39-5.62-1.67-1.43-1.09-3.81-.37-5.8.86-2.36,2-4.65,2.63-7.07,1.19-4.46,2.57-8.88,3.77-13.31.74-2.77,2.42-5.24,2.65-8,.35-4.18,3-7.44,4.11-11.32a76.5,76.5,0,0,1,6.15-15.57c1.91-3.45,2.67-7.12,4-10.66,1.73-4.42,3.38-8.87,5.11-13.29,2.38-6.07,4.76-12.14,7.21-18.19,1.28-3.16,2.79-6.23,4-9.4,1.52-3.89,2.81-7.87,4.33-11.76,1-2.52,2.18-5,3.34-7.41,1.6-3.39,3.89-6.6,4.72-10.16,1.32-5.63,4.23-10.52,6.21-15.82.91-2.44,2.34-4.68,3.38-7.08,1.25-2.9,2.37-5.86,3.49-8.81,1.71-4.51,3-9.18,5.63-13.31.57-.88.5-2.14.94-3.13C81,97.09,82.57,92.66,85,88.83c2-3.13,2.81-7.09,6.27-9.38,2.41-1.59,4.56-2.62,7.5-1.45,2,.8,4.08,1.54,6.48.62,2.07-.79,3.39.34,4.13,2.59.49,1.5,1.4,2.94,1.56,4.47.48,4.41-1.26,8.1-4.19,11.35a15.12,15.12,0,0,0-3.51,5.87c-.57,1.9-2,3.52-3.06,5.3A28.15,28.15,0,0,0,98.32,112c-1.33,3.45-2.43,7-3.84,10.4-1.17,2.83-2.72,5.5-4,8.29-1.13,2.45-2,5-3.2,7.44-1.59,3.15-1.57,6.93-4.39,9.68-1.19,1.17-1,3.62-1.74,5.41-.87,2.23-2,4.36-3,6.54-.47,1-1,2-1.38,3.07-1.33,3.37-2.07,7-4.69,9.77-.28.29-.26.86-.41,1.29-1.1,3.22-1.76,6.7-3.47,9.56a70.17,70.17,0,0,0-3.15,6.8c-1.09,2.35-1.74,4.9-2.71,7.31-.66,1.65-1.54,3.2-2.32,4.8C58.7,205,60,209,63.79,209a14.68,14.68,0,0,1,4,.79c4.62,1.38,8.78-.35,12.45-2.57,3.48-2.1,6.47-5.1,9.4-8,3.73-3.66,7.32-7.48,10.69-11.47a26.44,26.44,0,0,0,3.31-6.1c1.25-2.7,2.45-5.44,3.46-8.24,1.48-4.11,2.77-8.29,4.14-12.43a3,3,0,0,0,.26-.8c0-1.77,3.36-1.7,2.19-4.49-.52-1.25.77-3.35,1.42-5,.94-2.37,2.45-4.53,2.58-7.21a1.85,1.85,0,0,1,.8-1.13c1-.75.92-1.59,1.05-2.81.25-2.37,1.68-4.63,2.68-6.91.21-.48.91-.81,1-1.27,1-5.78,4.13-10.83,5.65-16.42,3.35-3.37,2.68-8.85,6.35-12,.18-2.1,1.39-3.71,2.4-5.47,1.79-3.14,3.24-6.48,4.8-9.75.48-1,.87-2,1.3-3.07.11-.26.1-.61.27-.79,1.44-1.51,2.9-2.74,3-5.31.06-1.94,1.38-4,2.62-5.71,1.68-2.26,4.15-4,4.11-7.21,2.6-2.86,3.83-6.49,5.67-9.78,2.18-3.9,4.77-7.56,7.19-11.32,0-.08.16-.12.19-.2,2.13-4.7,5.81-8.29,8.8-12.38.11-.15.31-.32.3-.47-.17-2.81,2.4-3.42,3.9-4.88s3.1-3,4.67-4.45c.54-.51,1.22-.88,1.72-1.42,3.22-3.46,7.14-3.66,10.47-.41,2.06,2,4,4.14,6,6.2,2.76,2.84,3.08,6.34,2.41,9.95a93.58,93.58,0,0,1-7.91,23.12c-.4.83-.42,1.84-.82,2.67-.59,1.23-1.37,2.36-2,3.56-1.74,3.14-3.88,6.14-5,9.49-.61,1.78-1,3.74-1.74,5.54-.5,1.18-1,2.34-1.55,3.51-.11.24-.24.64-.41.67-2.93.48-2.37,3.21-3.27,5-.41.82-.87,1.61-1.29,2.42A15.14,15.14,0,0,0,180,94.6a5.42,5.42,0,0,1-2,3.23c-.86.61-1,2.2-1.54,3.31-.94,1.89-2,3.73-2.91,5.63-1.29,2.64-2.45,5.35-3.78,8-.8,1.58-1.83,3-2.74,4.56-1.21,2-3,3.76-3.25,6.3,0,.45-.79.79-1.06,1.26-.76,1.31-2.46,2.19-1.86,4.13a.93.93,0,0,1-.25.78c-2,1.77-2.56,4.25-3.52,6.56a27.24,27.24,0,0,1-2.11,3.23c-1.63,2.73-3.2,5.49-4.83,8.22s-3.47,5.72-5.21,8.58q-.58,1-1.11,1.93c-1.2,2.2-2.37,4.41-3.6,6.6a2.11,2.11,0,0,1-1,1c-1.79.6-3.58,1.12-2.33,3.64-1.56,1.27-1.4,3.41-2.54,5a99.9,99.9,0,0,0-6.13,9.32,58.13,58.13,0,0,0-4,8.3c-1.16,3-1.88,6.25-2.91,9.34-.46,1.41-1.25,2.7-1.77,4.1a5.94,5.94,0,0,0-.44,2.46,27.57,27.57,0,0,1-1.27,11.14c-1.15,3.48-1.34,7.28-2,10.93a7.42,7.42,0,0,1-.21,1.1,14.23,14.23,0,0,0-.59,6.71,4,4,0,0,1,0,1.92c-1.54,4.13-.83,8.5-1.49,12.68a33.56,33.56,0,0,0-.28,9.12q.22,1.94.39,3.89c.26,2.86,1.74,4.68,3.89,4.74,3.4.1,6.18-1.76,6.49-4.56.39-3.54.44-7.12.9-10.64.72-5.56,1.66-11.09,2.52-16.63a23,23,0,0,1,.85-5c1.78-4.47,2.5-9.16,3.6-13.79,1.4-5.87,4.12-11.42,5.51-17.29,1.09-4.63,4-8.34,5.31-12.78.94-3.13,2-6.21,4.5-8.57a1.37,1.37,0,0,0,.4-.73c.39-2.83,2.59-4.68,3.82-7.05a43.88,43.88,0,0,0,2.15-3.9,56.41,56.41,0,0,1,7-12.37c1.19-1.64,1.92-3.62,3-5.32,1.34-2,2.92-3.88,4.34-5.86,2.53-3.51,5-7.06,7.53-10.56a9.9,9.9,0,0,1,1.39-1.29c2-1.9,4.06-3.84,6.14-5.7s4.09-3.52,6.15-5.26c.21-.17.68-.19.73-.37.85-2.8,3.8-3.11,5.55-4.78,2.2-2.1,4.93-2.56,7.61-3.32a35.12,35.12,0,0,1,12.46-1.31c1.82.14,3.75-1,5.62.17,3.53,2.16,7.53,3.58,10.23,7a32,32,0,0,0,4.59,4.12c3.43,3,5.42,6.85,7,11a32.79,32.79,0,0,1,1.64,7.88,71.46,71.46,0,0,1,.23,12,27.15,27.15,0,0,1-1.78,8.49c-1.38,3.53-1.69,7.58-4.58,10.46a1.73,1.73,0,0,0-.49,1c-.36,4.93-4,8.34-5.87,12.59-.9,2.07-2.67,3.76-4.05,5.62a5.62,5.62,0,0,0-1,1.36c-.88,2.66-2.71,4.54-4.61,6.54a65.39,65.39,0,0,1-11.7,9.94c-3.84,2.5-7.2,5.7-11,8.22-5.12,3.36-10.57,5.89-17,5.69-3-.09-6.14,1.06-9.16.85-3.4-.24-6.74-1.34-10.08-2.15-1.7-.41-3.32-1.15-5-1.51a2.13,2.13,0,0,0-2.71,1.45q-1.57,4.93-3.14,9.86a7.28,7.28,0,0,1-.26,1.09c-1,2-1.72,4-.83,6.29-1.73,2.89.38,6.53-1.85,9.39-.39.5.05,1.62,0,2.45s-.12,2-.41,2c-2.08.52-1.38,1.53-.65,2.63a2.06,2.06,0,0,1,.36.76,63,63,0,0,1,1.24,8.44c.07,3.17.54,6.33,2.18,8.83,1.53,2.34,3.48,4.88,6.89,5.11,2.49.16,5,.89,7.43.59,3.44-.43,6.89-1,10-3,1.8-1.13,4.16-1.38,6.25-2.08.58-.2,1.37-.44,1.61-.89.85-1.63,2.33-2.28,3.82-3.13a30.26,30.26,0,0,0,4.63-3.55c4.88-4.19,9.54-8.66,14.65-12.54,3.09-2.35,5-5.54,7.53-8.27,2.77-3,5.33-6.19,8-9.31.66-.78,1.32-1.56,2-2.36,2.51-3.16,5.05-6.29,7.49-9.51,1.58-2.08,3-4.27,4.49-6.42q4.71-6.79,9.41-13.6c1.81-2.62,3.57-5.27,5.36-7.91a3.86,3.86,0,0,1,.49-.69c3-2.76,4.3-6.68,6.91-9.74,1.71-2,2.74-4.59,4.14-6.87,2.58-4.21,5.15-8.43,7.82-12.58a96.86,96.86,0,0,0,10.59-22.8,41.73,41.73,0,0,1,2.42-5.05c1.22-2.53,2.79-4.81,2.88-7.92.07-2.32,1.38-4.64,2.29-6.9,1.95-4.84,4-9.65,6-14.45,1.27-3,2.64-5.93,3.9-8.92,1.18-2.82,2.22-5.7,3.39-8.52s2.31-5.49,3.57-8.19c1.78-3.8,3.65-7.55,5.49-11.31a50,50,0,0,1,2.63-5.2c2.94-4.56,4.73-9.66,7.05-14.51,1.64-3.41,3.7-6.63,5.65-9.89,1.13-1.89,2.49-3.64,3.59-5.55s1.74-3.78,2.82-5.53c1.62-2.61,3.39-5.13,5.2-7.62s3.77-5.08,5.79-7.5q3.41-4.09,7.08-8a66,66,0,0,1,6.22-6c1.83-1.48,2.37-1.21,4,.32a13.65,13.65,0,0,1,3.64,4.69c.65,1.48,2.31,2.93,3.41,4.47a3.19,3.19,0,0,1,.72,1.18c.79,5.41,1.25,10.77-3.06,15.17-.19.2-.46.43-.48.66a14.29,14.29,0,0,1-3.29,8.27c-.34.4-.07,1.25-.29,1.81-.57,1.46-1.25,2.87-1.89,4.3l-1.14-.29v.46l1.19-.34-4.2,11.87c-.28.79,0,2.09-1.58,1.71-.09,0-.31.58-.51.86a13.28,13.28,0,0,0-1.79,2.61c-.34.92,0,2.12-.34,3a67.31,67.31,0,0,1-4.52,8.62c-1.13,1.87-2.33,3.69-3.62,5.46-.16.22-.22.63-.42.71-3.12,1.23-2.44,3.93-2.52,6.36,0,.5-.21,1.42-.37,1.44-2.25.17-1.65,2-2.2,3.3a61,61,0,0,1-3.2,5.57c-.86,1.51-1.72,3-2.5,4.57-1.33,2.62-2.58,5.27-3.92,7.88a1.79,1.79,0,0,1-1,.81c-1.38.36-1.6,1.35-1.72,2.56-.32,3.19-1,6.14-4.94,6.75-1,.15-1.1.94-.38,1.69,1.28,1.33.75,2.56-.19,3.76-1.61,2-3.5,3.93-4.76,6.17-.93,1.65-2.41,3-2.33,5.43.05,1.65-1.73,3.39-2.78,5-1.67,2.59-4,4.92-5,7.73-1.28,3.74-3.35,6.9-5.25,10.26-1.55,2.74-2.35,5.9-3.5,8.87-2.17,5.58-4.41,11.12-6.5,16.73-1.46,3.92-2.74,7.91-4,11.9-1,3.18-1.85,6.41-2.83,9.6a18.46,18.46,0,0,1-1.18,2.52,19.48,19.48,0,0,0-1.44,3c-.86,3-1.55,6.06-2.34,9.09-.39,1.49-.8,3-1.32,4.42-.09.24-.76.26-1.15.4s-.8.3-1.2.46l.66,1.11c.28.47.86,1,.8,1.41a10.71,10.71,0,0,1-.92,4c-3,5.13-3.27,10.95-4.48,16.53a7.48,7.48,0,0,1-.83,2.66,5.71,5.71,0,0,0-1.1,5c.13.51-.26,1.21-.53,1.77-.34.72-1.2,1.42-1.13,2.05a11.35,11.35,0,0,0,1.22,4c.52,1,1.53.63,2.49.24,3.18-1.29,5.56-3.66,8.2-5.71a76.54,76.54,0,0,0,14.53-15.41c4.63-6.29,10.19-12,13.26-19.42a9.88,9.88,0,0,1,1.48-2,46.88,46.88,0,0,0,3.06-3.95c3.23-5.25,6.34-10.57,9.54-15.83,2.52-4.13,5.54-8,7.52-12.38a48.26,48.26,0,0,1,4.06-7.26c2.62-3.83,3.57-8.34,5.53-12.43,1.23-2.55,1.57-5.52,2.44-8.26,1.08-3.39,2.34-6.72,3.43-10.1,1.43-4.46,2.68-9,4.17-13.41.55-1.64.46-3.9,3-4.28.14,0,.34-.64.28-.93-.76-3.58.74-6.55,2.37-9.54.84-1.55,1.34-3.28,2.15-4.85a19.33,19.33,0,0,1,1.89-2.57c.16-.21.45-.44.43-.64-.3-4,1.43-7.38,3.37-10.69a4,4,0,0,0,.25-1.32c.31-1.91.23-4,2.34-5.09a1,1,0,0,0,.38-.68,18.06,18.06,0,0,1,4.49-9.73,3.41,3.41,0,0,0,.54-1.85c.19-2.72,1.5-4.93,2.85-7.22,1.85-3.13,3.28-6.51,5-9.73.74-1.38,1.79-2.59,2.61-3.94a13.88,13.88,0,0,0,1-2.37,62.34,62.34,0,0,1,2.34-6.22c1-1.9,2.38-3.55,3.48-5.38.86-1.43,1.53-3,2.3-4.45.42-.83.81-1.68,1.31-2.45q5-7.85,10.13-15.66a14.51,14.51,0,0,1,1-1.38c3.51-4.24,6.94-8.56,10.6-12.67a30,30,0,0,1,5.39-4.44c1.3-.9,4.58.47,5.46,2.08,1.35,2.45,2.71,4.89,4,7.38a9.41,9.41,0,0,1,.49,2.13c.12.53.11,1.28.45,1.55,2.73,2.14,1.57,5.07,1.34,7.6-.2,2.17-1.39,4.25-2.15,6.36-.82,2.28-1.6,4.58-2.48,6.84-.57,1.46-.54,3-2.09,4.28-1.1.9-1,3.24-1.46,4.92-.2.73-.51,1.43-.65,2.16a7.59,7.59,0,0,1-3.86,5.41c-1,.6-.32,1.14.42,1.58a4.62,4.62,0,0,1,1,1.1,6.66,6.66,0,0,1-1.13.52c-1.69.44-1.62,1.8-1.25,2.92A3.19,3.19,0,0,1,415,74.08c-.32.29-.76.8-.69,1.11.46,2.25-1.23,3.3-2.58,4.28-2.08,1.51-3.79,2.88-1.38,5.61-1.92,0-3,.49-2.5,2.43.59,2.21-.63,3.76-2,5.25-.58.64-1.13,1.32-1.91,2.24a1.67,1.67,0,0,0-.78-.29,1.8,1.8,0,0,0-1.31.35,1.68,1.68,0,0,0-.19,1.39c.2.59.84,1,1,1.63.45,1.74-.63,2.87-2.4,2.74-.91-.07-2-.32-2.71.07a9.62,9.62,0,0,0-2.38,2.54c-.14.18,0,.78.22,1a1.14,1.14,0,0,0,1,.17c.8-.27,1.56-.66,2.77-1.2-1.37,5.75-2.57,10.86-5.62,15.33a1.77,1.77,0,0,1-2.57.73,5.31,5.31,0,0,0-2,.09,10.15,10.15,0,0,1,.89,1.63c.12.36.09,1.08-.1,1.18a20.71,20.71,0,0,1-2.77,1c1.89.72,2.89,1.78,2,3.64-.51-2-2.36-2.07-3.92-3,0,1.9.41,2.93,2.35,2.64A5.19,5.19,0,0,1,389,126.89Zm30.29,92.57.42.18c-.5,1.14-1,2.28-1.5,3.41a17.88,17.88,0,0,0-.9,1.72c-.93,2.81-2.62,3.58-5.34,2.34a12.44,12.44,0,0,0-1.71-.91c-2.7-.72-3.83.17-3.9,2.95a10.63,10.63,0,0,1-.22,1.94,43.74,43.74,0,0,0-.48,14.4c.61,5.07,4,8.19,9.62,8.22,1.49,0,3,.1,4.47.12a5.33,5.33,0,0,0,1.65-.14c2.13-.67,4.24-1.37,6.34-2.13a66.19,66.19,0,0,0,8.61-3.28,98.61,98.61,0,0,0,8.6-5.67,52.16,52.16,0,0,0,13.79-13,64.91,64.91,0,0,0,9.49-19.83,30.54,30.54,0,0,0,1-3.33,62.71,62.71,0,0,0,.89-6.93,27.46,27.46,0,0,0-.25-6.21,16.8,16.8,0,0,0-1.81-4.71,34.44,34.44,0,0,0-3.39-5.45c-.5-.64-2.09-1.22-2.62-.9-1.79,1.08-4.31,2.32-4.73,4-.62,2.41-2.57,3.59-3.36,5.45-1.55,3.69-5.71,4.09-7.71,7a1,1,0,0,1-.78.25c-3.44-.39-6.22,1.75-9.37,2.47-1.78.41-3.45,1.32-5.23,1.71-2.82.61-5.52,2.42-8.64.78-1.36-.72-2.35.08-2.41,1.7Q419.54,212.54,419.28,219.45ZM221.56,154.38a9.22,9.22,0,0,0,.07-2A27.12,27.12,0,0,0,216.55,141c-2.18-2.95-5-3.76-7.59-2.61a40.41,40.41,0,0,0-15.57,11.84c-2.16,2.68-4.55,5.16-6.73,7.83a60.47,60.47,0,0,0-4.42,6.06c-1.42,2.26-2.11,5.19-4,6.91-2.43,2.24-3.15,5.22-4.62,7.82-2.52,4.45-4.44,9.23-6.62,13.87-1.23,2.63-1,3.68,1.25,5.7a5.25,5.25,0,0,1,.94,1,6.63,6.63,0,0,0,4.91,2.92c6.61,1,12.64-.94,18.3-4,3-1.63,5.64-3.89,8.44-5.87,1.06-.75,2.1-1.52,3.15-2.27,2.7-1.93,4.29-4.83,6.44-7.24a32.66,32.66,0,0,0,5.17-8.49c1.41-3.11,3.42-6,3.39-9.68a1.45,1.45,0,0,1,.27-.79C221.36,161.12,221.23,157.7,221.56,154.38Zm219.16,15.83a5.63,5.63,0,0,0-1.15-1.93c-1-.84-1.85,0-2.7.66a35.14,35.14,0,0,0-10.76,14c-.75,1.71-1.61,3.39-2.22,5.15a2.16,2.16,0,0,0,.54,1.93,2.31,2.31,0,0,0,2,0,7.89,7.89,0,0,0,2.21-1.7,105.41,105.41,0,0,0,7.3-7.78C438.17,177.74,440.49,174.82,440.72,170.22Zm-64.65-27.06c.14-.45.31-.71.26-.91s-.38-.2-.58-.29c-.07.16-.22.35-.18.48A3.18,3.18,0,0,0,376.07,143.16Zm-44.5-43.64-.3.33c.14.07.29.2.43.18s.2-.19.3-.3Zm92,91.75-.38-.42a2,2,0,0,0-.33.55c0,.1.17.25.27.38Zm-2.84,84.24,0-.24a3.54,3.54,0,0,0-.42.13,1,1,0,0,0,0,.23Zm-226.6-52.29c.07,0,.17-.09.2-.15s-.05-.14-.08-.21-.17.09-.2.16S194.12,223.15,194.16,223.22Zm199.71-115.7.38.22a1.07,1.07,0,0,0,.1-.21,3.38,3.38,0,0,0-.37-.22ZM152.55,72a2.3,2.3,0,0,0-.18-.39s-.22,0-.23.05a2.14,2.14,0,0,0-.06.44Z"/><path d="M532,304c-1.63-.3-3.47-.22-4.86-1-3.71-2-7.67-3.73-10.2-7.51-1.44-2.14-3.59-3.79-5.26-5.8a51.65,51.65,0,0,1-5-6.75c-.85-1.45-.86-3.37-1.44-5-.76-2.16-1.88-4.2-2.52-6.39a53.74,53.74,0,0,1-1.83-8.48c-.29-2.43-.74-5.24.17-7.31s-.19-3.41-.64-5a10.67,10.67,0,0,1-.54-3c.16-6.18.21-12.38.71-18.54.25-3,1.48-5.89,2.13-8.86.36-1.63.23-3.38.66-5,1-3.83,1.89-7.71,3-11.5,1.45-4.79,3.27-9.48,5.09-14.15,1-2.48,2.29-4.81,3.4-7.23.66-1.43,1.12-3,1.85-4.35,2.93-5.61,6.09-11.11,8.86-16.79a89.81,89.81,0,0,1,7-12c1.23-1.76,1.8-4,2.85-5.87,2.43-4.44,5.69-8.27,8.93-12.14a71,71,0,0,0,4.58-6.9,3.48,3.48,0,0,1,.52-.66c4.76-4.39,7.9-10.05,11.88-15.05,1.34-1.68,2.94-3.16,4.34-4.8,1.2-1.42,2.29-2.94,3.42-4.41a9.14,9.14,0,0,1,.83-1.11c1.88-1.79,3.79-3.54,5.66-5.34,4.37-4.19,8.69-8.42,13.08-12.59,1.8-1.71,3.68-3.34,5.63-4.88s3.89-2.89,5.9-4.24c4.58-3.07,9.08-6.29,13.84-9.05a49.57,49.57,0,0,1,11.37-5.12c1.71-.48,3.27-1.29,4.89-1.85,5.44-1.91,11.13-.92,16.63-1.87,1.37-.24,2.9.43,4.35.72,4.66.93,9.33,1.82,14,2.88a14.51,14.51,0,0,1,3.21,1.7c5.17,2.74,10.31,5.53,14.49,9.73,4.37,4.4,8.75,8.78,11.35,14.61,1.18,2.64,3,5,4.24,7.6a96.32,96.32,0,0,1,3.55,9.13,65.74,65.74,0,0,1,2.35,8c.61,2.9.87,5.87,1.23,8.81a54.1,54.1,0,0,1,.63,6.63,62.68,62.68,0,0,1-.59,8c-.39,2.94-1.16,5.84-1.47,8.79-.17,1.59-.72,1.84-2.32,1.19,1.33,1.87,1.76,3.52.24,5.15,1.12,3-.41,5-2.33,7.12-1,1.08-.7,3.17-1.23,4.72s-1.59,2.85-1.93,4.37c-.6,2.66-2.07,4.79-3.26,7.13-1.42,2.8-2.35,5.76-4.78,8a2.86,2.86,0,0,0-.65,1.83c-.11,2.08-1.39,3.34-2.91,4.47l-2-.12a4,4,0,0,0,.07.71c.52,0,1,0,1.56,0-1.86,3.09-3.68,6.21-5.62,9.25-.49.76-1.41,1.23-2,1.92s-1.53,1.39-1.65,2.18c-.32,2.15-1.74,3.29-3.15,4.69-1.73,1.72-2.91,4-4.55,5.81a71.42,71.42,0,0,1-5.4,5.21c-.57.52-1.81.18-1.27,1.86.21.66-1.59,2.13-2.66,3-2.66,2.17-5.42,4.21-8.13,6.32-.29.22-.65.49-.74.8-1.09,3.72-4.16,5-7.39,6.2a4.57,4.57,0,0,0-.8.27c-5.06,3-10.72,3.63-16.38,4.25a2.68,2.68,0,0,0-.83.15c-4.5,2.1-9.29,1.49-14,1.38-3-.07-6-.37-8.74-2.27s-5.94-3-8.85-4.67a19.47,19.47,0,0,1-7.87-8.09c-1.68-3.23-3.1-6.6-4.63-9.9-1.6-3.46-2.1-3.61-5.38-1.71-2.64,1.53-5.27,3.11-8,4.49-2.06,1-4.33,1.67-6.38,2.72a48.93,48.93,0,0,0-4.39,3c-.77.51-1.58,1.5-2.49.08-.06-.1-.85.09-1.14.34A5.73,5.73,0,0,1,548.1,223a18.63,18.63,0,0,0-6.23,1c-3.45,1.23-6.65.64-9.81-.71s-5.45-.5-6.14,2.88c-.48,2.39-1.83,4.7-.83,7.34a5.31,5.31,0,0,1-.23,2.78c-.68,3-1.2,5.78,0,8.86.67,1.7.22,3.87.17,5.83-.06,2.23-.32,4.38.8,6.56.38.74-.71,2.24-1.2,3.57,1.84.61,2.43,2.19,2.92,4.13a45.24,45.24,0,0,0,2.84,7.32c.3.68,1.13,1.13,1.7,1.69,2.17,2.12,4.19,4.43,6.54,6.32a20.88,20.88,0,0,0,9.75,4.67,12.75,12.75,0,0,1,3.22,1c3.43,1.56,7.17,1.09,10.75,1.6,2,.28,4.21-.8,6.34-.93,2.6-.16,5.21,0,7.82.1.65,0,1.52.47,1.91.19,3.49-2.48,7.84-1.59,11.67-3.13,2.88-1.16,6-2,8.93-3.23,2.06-.84,4.45-.9,6.69-1.32.27-.05.72-.18.74-.31.2-1.94,2.07-2.22,3.22-2.67,5.33-2.06,10.07-5.64,16-6.27a1.72,1.72,0,0,0,1-.47c3.25-3.37,7.57-4.83,11.7-6.65.41-.18.7-.63,1.11-.84,2.1-1.12,3.88-2.65,6.48-3.08,1.78-.3,3.21-2.4,4.91-3.5,2.3-1.49,4.69-2.88,7.12-4.16a4.76,4.76,0,0,1,2.71-.36c1,.14.89-.4,1.34-1a9.37,9.37,0,0,1,3.7-2.17c1.25-.53,2.79-.35,3.36-2.11.3-.91,2.22.62,2.31-1.18a124,124,0,0,1,17.08-9.35c2.63-1.24,5-3.08,7.52-4.52s5.29-3.27,8.18-4.12c3.56-1.05,6.5-3.18,9.81-4.61,4.83-2.08,9.7-4.08,14.56-6.07a3.76,3.76,0,0,1,1.33,0,3.88,3.88,0,0,1-.75,1c-1.51,1-3.08,1.93-4.6,2.92-.54.35-1.46.85-1.43,1.21.22,2.4-2,2.38-3.17,3.26-1.69,1.25-3.52,2.3-5.31,3.41-2.6,1.6-5.22,3.15-7.81,4.76-2.06,1.29-4,2.74-6.13,3.95-1.82,1-3.77,1.85-5.66,2.76-.38.19-1,.32-1.09.63a6.76,6.76,0,0,1-3.93,3.68,52.4,52.4,0,0,0-5.5,3c-4.11,2.37-8.18,4.79-12.3,7.13-3.22,1.84-6.4,3.78-9.76,5.31-1.77.8-3.65,1.19-4.61,3.11a.71.71,0,0,1-.46.3c-3.1.51-4.87,3.18-7.4,4.63-3.17,1.83-5.83,4.53-8.91,6.54-2.72,1.77-4.94,4.16-8.69,4.59-2.86.33-5.53,2.51-7.74,4.82a16.63,16.63,0,0,1-4.07,2.72c-.25.14-.93-.54-1.42-.82s-.74-.39-1.12-.58l-.45,1.11c-.21.52-.27,1.25-.66,1.5a17.41,17.41,0,0,1-3.11,1.46,11.37,11.37,0,0,1-.55-1.08c-2.67,3.89-6.83,5.17-10.74,6.77-.7.29-1.68-.11-2.72-.21l-.49,2.82c-2.43-.23-4,1.28-5.88,2.81-1.68,1.39-4.12,1.88-6.22,2.75-.48.2-1.19.2-1.42.55a5.29,5.29,0,0,1-6.77,2.2,1.57,1.57,0,0,0-1.27.14,6,6,0,0,1-5.51,1.25c-.26-.07-.67-.15-.82,0-3.07,2.83-7,2.17-10.62,2.42-3.79.26-7.79.39-11.41-.55-2.86-.74-5.6-.59-8.39-.84a28.43,28.43,0,0,1-4.41-.72,2.07,2.07,0,0,1-1.3-1.23c-.47-2-1.76-1.91-3.26-1.51Zm93.55-89.79a17.68,17.68,0,0,0,3.76-.76c3-1.31,5.9-2.83,8.85-4.26,1.85-.9,3.93-1.5,5.51-2.74a109.82,109.82,0,0,0,9.67-8.52c1.47-1.46,2-3.91,3.56-5.21,4.46-3.71,6.46-9.09,9.62-13.65,2.94-4.24,5-9.11,7.36-13.71A90.3,90.3,0,0,0,682.62,140c.36-2,.4-4,.92-5.89.32-1.17,1.78-2.14,1.84-3.24s-1-2.22-1.54-3.38c-.17-.4,0-.93-.05-1.4a30.3,30.3,0,0,0-.39-3.06c-.46-2.22-.42-4.46-1.27-6.71-.59-1.54-.57-3.58-1.27-5.3a42.51,42.51,0,0,1-2.11-4.89c-.64-2.42-2.78-4.6-1.34-7.42.09-.18-.22-.81-.47-.89a4.8,4.8,0,0,1-3.53-5.07c0-.21-.35-.42-.53-.63-2.8-3.44-5.57-6.89-8.41-10.29a5.77,5.77,0,0,0-1.86-1.18,35.12,35.12,0,0,0-3.3-1.52c-2.53-1-5.06-2-7.64-2.76-1.51-.47-3.07-.58-4.12-2-.27-.38-1.14-.51-1.72-.48-1.4.06-2.79.31-4.19.43-1.55.14-3.42-.27-4.6.45-3,1.84-6.53,1.67-9.68,3A80.89,80.89,0,0,0,618,82.08c-3.17,1.85-6.11,4.09-9.16,6.14-1.37.92-2.85,1.7-4.13,2.73s-2.12,2.26-3.29,3.26q-3.36,2.87-6.89,5.54a12.76,12.76,0,0,1-2.89,1.44c-.93.38-1.63.66-1.44,2a4.29,4.29,0,0,1-2.41,4.77,5.1,5.1,0,0,0-1.81,1.32c-2.23,3.1-5.13,5.52-7.91,8.08a5.73,5.73,0,0,0-1.65,2.75c-.49,2.16-1.91,3.58-3.34,5.06-.48.5-.92,1-1.37,1.57-1.69,2-3.66,3.76-4.25,6.49-.1.46-.8.76-1.17,1.19s-1.23,1.14-1.32,1.79c-.26,2-1.49,3.36-2.79,4.7a38.62,38.62,0,0,0-2.84,3.07c-.39.5-.79,1.63-.57,1.86.66.66,1.45.7,2.44,0,3.66-2.57,7.37-5.08,11.19-7.39a53.06,53.06,0,0,1,20.81-7.69,12.7,12.7,0,0,1,4.46,0c4.46,1.07,8.83,1.9,12.51,5.46,2.86,2.76,6.18,5,8,8.69.31.64,1,1.07,1.51,1.63s1.22,1.41,1.78,2.15c1,1.24,1.87,2.51,2.8,3.76a7.68,7.68,0,0,1,1,1.34c1.09,2.48,2,5.06,3.23,7.45s2.14,4.3.53,6.74c-.31.47-.1,1.28-.16,1.93-.11,1.21-.2,2.42-.38,3.62-.23,1.57-.82,2.64-2.79,2.23-.62-.13-1.39.4-2.09.65a12.36,12.36,0,0,0-6.94,5.34c-.27.45-.86.7-1.27,1.09a12.57,12.57,0,0,0-2.26,2.31,89.74,89.74,0,0,0-4.4,8,7.72,7.72,0,0,0-.84,4.29,57.84,57.84,0,0,0,2.59,10,8.6,8.6,0,0,0,3.41,4.17A18.51,18.51,0,0,0,625.53,214.25Zm-77.66-18.86c.39,2,1,2.66,2.67,2.4a23.83,23.83,0,0,0,3.5-1c3.63-1.15,6.9-3.06,10.3-4.74,6.06-3,11.42-7,16.89-10.82a96.27,96.27,0,0,0,11.14-9.56,33.11,33.11,0,0,0,5.36-6.72c.78-1.29,2.13-3.1.91-4.7a34.37,34.37,0,0,0-5.23-5.27,3.22,3.22,0,0,0-2.65-.08,60.3,60.3,0,0,0-8.17,3.47,57.17,57.17,0,0,0-8.84,5.79c-4,3.31-7.8,6.92-11.52,10.57A80.29,80.29,0,0,0,556,181.9a60.06,60.06,0,0,0-4.7,6.58C550,190.67,549,193.08,547.87,195.39ZM677.5,95.79a8.77,8.77,0,0,0-1-.59s-.35.4-.3.49a1,1,0,0,0,.57.47C676.88,96.2,677.09,96,677.5,95.79Zm-106.88,193a2.23,2.23,0,0,0-.36-.26s-.21.1-.2.12a2.67,2.67,0,0,0,.17.4Zm79.55-27.83-.24-.08v.4c.08,0,.19,0,.23-.08S650.16,261,650.16,260.93ZM599.57,93.8l-.15-.2-.26.24c.08,0,.16.1.23.1S599.51,93.85,599.57,93.8Z"/><path d="M606.55,569.78c-1.63-1.56-2.46-1.67-3.05.05-.79,2.28-2.29,1.73-3.83,1.55-.8-.1-1.75-.59-2.36-.31-4.23,2-8.63,1.71-13.08,1.38-.62,0-2.49-.87-1,1.13-.43.06-1,.32-1.27.15-1.37-.87-2.53-1.18-4,.07-.65.56-1.93.52-2.93.54-2.79.07-5.63,1-8.34-.47-1-.51-1.51,0-2.1.76-.81,1.06-1.74,1.77-2.71,0a1.41,1.41,0,0,0-1.34-.16,5.83,5.83,0,0,1-5.47.95c-1.74-.54-3.88.22-5.84.39s-3.65.2-5.44.49c-1,.17-1.91.85-2.92,1.1a5.92,5.92,0,0,1-2.84.2,9.64,9.64,0,0,0-5,.26c-3,.68-6.06,1.73-9.31,1.34a42,42,0,0,0-6.45,0c-2.32.08-4.63.22-6.94.44a16.11,16.11,0,0,0-2.2.72c-1.69.42-3.4.78-5.09,1.18-1.17.28-2.33.69-3.51.89a5,5,0,0,1-2.59,0c-1-.41-1.72-1.43-2.26.37,0,.14-.69.15-1,.13-3.13-.21-6.25-.49-9.38-.6a2.2,2.2,0,0,0-1.62,1c-.64,1.14-1.28,1.86-2.66,1.14-.15-.08-.45-.1-.54,0-2.13,2.11-4.61.45-6.92.68-1,.1-1.92.59-2.91.71a5.09,5.09,0,0,1-2.5-.16c-3.48-1.48-6.25.65-9.22,1.7-1.07.38-1.67,1.16-2.89-.31-.68-.81-3.1-.18-4.73-.18-1.24,0-2.38,0-2.9,1.57a1.9,1.9,0,0,1-1.73.64c-2.71-1.64-5,.19-7.46.72-.6.13-1.51.63-1.74.4-1.53-1.47-2.67-.56-4.17.16-1.72.83-4.08,1.94-5.53,1.36-1.83-.74-3.51-.19-5.19-.64a2,2,0,0,0-1.37.06c-4.17,2.42-8.81,2-13.29,2-2.16,0-3.56,2.07-5.83,1.23s-3.83.94-5.72,1.67a46.34,46.34,0,0,1-8.05,2.09,5,5,0,0,1-3.07-.51,3.28,3.28,0,0,0-3.67.43c-3.09,2-6.75,1.54-10.1,2.41-5.61,1.45-11.51.68-17.2,1.79-.54.11-1.43,0-1.58.29-1.12,2.16-3,1.11-4.59,1.23-1.29.1-2.81-.44-3.63,1.19-.09.17-.5.23-.77.25-3.32.28-6.66.35-9.94.89-2.27.37-4.41,1.45-6.65,2.1-2.58.74-5.28,2.11-7.77,1.83-2.69-.31-5.34.37-8-.23-.57-.13-1.52-.07-1.79.29-1.35,1.77-3.28,1.42-5.08,1.75-3.36.62-6.69,1.47-10,2.24-.54.13-1.05.41-1.6.5-2.95.47-5.9.9-8.85,1.34-.27,0-.63.16-.81,0-2.46-1.63-3.93.25-5.63,1.5a4.73,4.73,0,0,1-2.13.82c-1.53.19-3.11.07-4.62.32-2.58.43-5.12,1-7.68,1.6a9.82,9.82,0,0,0-2.12.61,5.85,5.85,0,0,1-5.17.12,2.85,2.85,0,0,0-3.11.22c-2.35,1.48-5,1.71-7.82,1.7a8.4,8.4,0,0,0-4.41,1.26,4.88,4.88,0,0,1-3.45,1.07c-2-.13-4,.61-6,1.08-1.09.26-2,.47-2.56-.85-.16-.37-.9-.62-1.4-.65-.25,0-.81.68-.74.92.56,2.11-1.22,2.19-2.3,2.42-5.34,1.12-10.78,1.79-16.05,3.15-3.78,1-7.76,1.07-11.41,2.88-2,1-4.54.74-6.8,1.22-1.63.34-3.2,1-4.79,1.46-.36.11-.77.44-1.05.34-2.76-.94-5.09.92-7.67,1.22-1.6.19-3.06,1.07-4.68.11a.86.86,0,0,0-.77.19c-2.68,2.79-6.45,2.51-9.76,3.51-2.81.84-5.62,1.73-8.48,2.31a38.6,38.6,0,0,1-5.78.31,6.32,6.32,0,0,0-2.13.15c-1.77.77-3.43,2.32-5.21,2.45-3.08.22-5.7,2.83-9.14,1.43-1-.41-2.66.78-4,1.24-2.55.86-5.06,1.85-7.66,2.54-4,1-8,1.86-12,2.81a10.1,10.1,0,0,0-2.11.79A2.07,2.07,0,0,1,101,656c-1.4-1.09-2.75-1-3.76.76a2.77,2.77,0,0,1-1.47,1c-1.54.5-3.17.74-4.66,1.34s-2.58,1.42-4.15.92a.68.68,0,0,0-.53.13c-3.29,2.51-7.48,2.21-11.15,3.52-2.47.88-2.68,1.16-1.45,3.33a4,4,0,0,1,.29,1.81c0,1.58-.09,3.1,1.33,4.38.91.82.66,2-.32,3-2.58,2.6-5.5,3.67-9.1,2.5a1.77,1.77,0,0,0-1.35,0c-2.71,2.08-6,2-9,1.67-3.51-.44-6.56.81-9.82,1.16-2.12.23-4.28.15-6.41.26-5.32.27-10.65.82-16,.76-2.63,0-5.25-1.1-7.86-1.77a27,27,0,0,1-3.72-1.23,7.2,7.2,0,0,1-2.08-1.35c-1-.95-1.87-2.07-2.88-3-1.79-1.66-1.51-4-1.93-6-.75-3.7-.63-3.89,2.8-5.68a43.26,43.26,0,0,1,6.73-2.72c5-1.59,9.94-3.16,15-4.5,5.84-1.56,11.79-2.74,17.63-4.3,7-1.89,14-4.11,21-6,6.58-1.75,13.25-3.16,19.84-4.86,3.61-.92,7.11-2.23,10.72-3.16,4.72-1.22,9.51-2.16,14.24-3.35,4.33-1.09,8.61-2.38,12.93-3.51,2.08-.54,4.2-.9,6.3-1.37l21.49-4.9c6.74-1.53,13.49-3,20.23-4.59,4.09-.94,8.15-2.06,12.27-2.87,4.46-.87,8.83-2.35,13.45-2.32a1.48,1.48,0,0,0,.81-.17c2.84-2,6.24-1.87,9.42-2.56,2.47-.54,4.91-1.2,7.4-1.63,1.74-.3,3.55-.17,5.28-.48a32.22,32.22,0,0,0,4.4-1.4c.26-.09.47-.35.73-.4q6.35-1.4,12.7-2.77c2.78,1.62,4.61-1.52,7.26-1.41,2.43.1,4.88-1.11,7.36-1.56,2.94-.54,5.94-.8,8.88-1.33s6-1.32,9-1.89c5.52-1.05,11-2,16.57-3,1.57-.29,3.13-.64,4.7-.87,3.21-.48,6.43-.84,9.63-1.37,1.89-.31,3.72-.91,5.6-1.28,3-.6,6-1.18,9.07-1.67,4.74-.77,9.51-1.39,14.24-2.21,2.07-.36,4.07-1.14,6.13-1.57A30,30,0,0,1,343,587c.46,0,1,.29,1.37.13,6.07-2.74,12.86-2,19.1-4.06,2.47-.8,5.27-.59,7.91-.87,1-.11,2.05-.28,3.07-.45,5.36-.87,10.71-1.72,16.06-2.63,1-.17,2-.62,3-.88a33.28,33.28,0,0,1,3.25-.72c2.2-.35,4.41-.69,6.62-.91,1.58-.16,3.18-.12,4.77-.15.65,0,1.44.25,1.93,0,3.77-2.13,8-1.63,12.07-2.29,6.71-1.09,13.46-2,20.2-2.93,9.15-1.31,18.29-2.64,27.44-3.92,2-.28,4.1-.35,6.14-.59,3.8-.45,7.59-1,11.39-1.44q6.12-.72,12.25-1.33c2.49-.24,5-.32,7.49-.56,1.83-.17,3.64-.48,5.46-.74,5.82-.84,11.64-2.34,17.47-2.35,4.94,0,9.59-1.32,14.42-1.61,5-.3,10-.77,15-1.26,2.67-.26,5.32-.75,8-1.09,4.69-.59,9.36-1.45,14.07-1.64s9.21-.73,13.82-1.23c3.77-.41,7.62-.17,11.43-.21,3.61,0,7.11-1.11,10.65-1.35,3.19-.22,6.29-1.69,9.57-.82.3.08.69-.17,1-.25a27.73,27.73,0,0,1,9.88-.5,6.35,6.35,0,0,0,2.76-.2,6.94,6.94,0,0,1,4.88-.37c.8.28,1.89-.37,2.86-.47,4.62-.48,9.28-.18,13.88-1.44,2.24-.61,4.84.28,7.25.12,4.55-.31,9.07-1,13.62-1.31,4.34-.27,8.69-.19,13-.31,1.37,0,2.75-.22,4.12-.31,3.9-.25,7.83-.92,11.68-.57,2.71.25,5.23-.95,7.56-.64,4.09.55,7.87-.39,11.79-.77,5.37-.53,10.79-1.28,16.14-1,5.72.29,11.3-1.63,16.93-.66a11,11,0,0,0,5.37-.39c1.06-.32,2.37.33,3.57.3,2.77-.09,5.53-.28,8.29-.51,4.44-.37,8.87-.84,13.32-1.17,1.47-.11,3.09.49,4.41.06,2.86-.95,5.8-.3,8.66-.84a19.48,19.48,0,0,1,6.94-.44,42.48,42.48,0,0,0,6.82.37c6,.18,11.93-.82,17.9-1.2,2.12-.14,4.27.46,6.41.44,6.54-.06,13.07-.36,19.6-.36,5.29,0,10.58.4,15.88.45,3.25,0,6.5-.32,9.75-.37,1.28,0,2.56.44,3.85.51,5.79.3,11.58.49,17.37.81,4.85.27,9.7.63,14.55,1,2.31.17,4.62.38,6.91.65,3.71.44,7.46.76,11.12,1.47a31.38,31.38,0,0,1,7.13,2.4c1,.48,1.7,1.79,2.51,2.75.17.2.17.7.33.74,4,1.05,1.3,5.17,3.23,7.18.12.12-.16.68-.33,1-1.18,2.36-1.18,2.36.75,4.1a68.36,68.36,0,0,1-7.22,1.27,61.83,61.83,0,0,1-8.36-.07c-4-.26-8-.63-11.93-1.09-2.68-.31-5.32-1.05-8-1.25-4.37-.33-8.77-.34-13.15-.54-1.46-.07-2.92-.34-4.38-.47-3.32-.3-6.64-.62-10-.83-1.49-.1-3,.31-4.48,0-3.2-.65-6.29-.19-9.47.08-2.94.25-6-.4-8.93-.65-2-.17-4.23-.91-6.05-.37-5.87,1.74-11.79-.67-17.64.67-1.77.4-3.73,0-5.6-.06l-18.18-.17c-.46,0-1.06.15-1.36-.07-1.17-.87-2-2-3.14.31-.32.66-2.42.61-3.71.63-3.36.06-6.73-.09-10.1,0s-6.82.18-10.22.37c-4.61.26-9.23.44-13.81,1a11.05,11.05,0,0,1-7.16-1.81c-.26.63-.36,1.48-.82,1.78s-1.24,0-1.89-.07a2.46,2.46,0,0,0-3.35,0,2.27,2.27,0,0,1-.1-.26l-.52-1.92-.5.16,1,1.78a2.21,2.21,0,0,0,.16.23h3.41c-1.66.16-3.32.34-5,.48-2.12.18-4.25.21-6.35.53a7.51,7.51,0,0,1-4.34-.27c-1.09-.46-2.52-.18-3.79-.08a16.91,16.91,0,0,0-4.39.62,3.2,3.2,0,0,1-3.57-.77c-.85-.79-1.51-1.16-2.12.2-.85,1.88-2.47,1.63-3.73.87-2.06-1.24-3.8-1.29-5.66.26a3.65,3.65,0,0,1-2,.81c-4.72.19-9.49,0-14.16.53a14.34,14.34,0,0,1-6.77-.65c-1.36-.47-2.86-.62-4,1-.65.89-1.91,1.67-3.08.28-.52-.62-1.17,0-1.55-.09a12.64,12.64,0,0,1-3.27-1.45c.05.12.05.18,0,.18-1.43,1.93-3.2,2.7-5.24,1.69a5.39,5.39,0,0,0-4.06-.09,5.8,5.8,0,0,1-3.49,0,5.25,5.25,0,0,0-4.19.7,8.37,8.37,0,0,1-5.31,1.4c-2.22,0-4.46-.57-6.66-.44a52.14,52.14,0,0,0-7,1.26c-.34.07-.24-.2-1.64-.54-1.83-.45-3.86-1.34-5.7,0-2.48,1.83-5.32,1.87-8.2,1.86-.87,0-1.35-.17-1.48-1.2-.05-.4-1.3-1.06-1.4-1-.87.82-2.25.28-2.72.58-3.42,2.15-7.73.47-11,2.76-.27.19-.85-.08-1.29-.11-1.2-.07-2.58-.53-3.54-.09-1.38.63-2.05-.11-3.07-.91-1.51,2.94-4.07,2-6.44,2-2.22-.08-4.44,0-6.66-.08-1.19,0-2.37-.2-3.56-.3Zm117.58-11.15-.43.13.62,2.3.62-.18ZM637,566l0-.29-1.19.17.06.35ZM245.76,614.75l-.35.32a2.56,2.56,0,0,0,.41.22s.19-.13.18-.16A2.69,2.69,0,0,0,245.76,614.75Z"/><path d="M872.17,509.66a22.34,22.34,0,0,1-3.74-1.09c-2.69-1.31-5.71-2.36-7.83-4.33s-4.92-2.17-7-4.06a58.92,58.92,0,0,0-6.88-5.11c-3.59-2.47-6.18-5.9-9.15-9-3.29-3.43-5.26-7.69-8.22-11.28-1.56-1.88-2.44-1.86-4.37-.29C819.59,479,814,483,807,485a43.61,43.61,0,0,1-11.18,1.66c-2.43.08-4.86.8-7.39.5-.82-.1-1.91.16-1.47,1.9.29,1.12-.53,2.66-1.16,3.84a13.18,13.18,0,0,1-3,4.25,14,14,0,0,1-5.25,2.34c-3.89.93-7.84,1.59-11.79,2.26a6.64,6.64,0,0,1-2.77-.23c-3.83-1.06-7.75-2-11.08-4.28a9.2,9.2,0,0,1-4-4.87A63.43,63.43,0,0,1,745.11,478c0-.7-.24-1.39-.48-2.74-1.42,1.55-2.46,2.64-3.46,3.79-3,3.44-5.83,7-9,10.3a64.47,64.47,0,0,1-6.51,5.25,1.12,1.12,0,0,0-.37.41c-1.54,4-5.35,4.52-8.74,5.6-2.66.85-5.46,1.31-8,2.36s-5,.61-7.45-.25c-.78-.27-1.65-.33-2.39-.68-1.57-.73-3.12-1.54-4.63-2.41-.89-.51-1.63-1.28-2.54-1.74-2.22-1.1-2.93-3-3.12-5.27-.41-5,.66-9.81,1.76-14.62.51-2.25,1-4.51,1.65-6.72.56-1.85,1.39-3.62,2.08-5.44a3.49,3.49,0,0,0,.39-1.31c-.25-4.57,1.81-8.51,3.37-12.59.65-1.71.91-3.57,1.52-5.31,1-2.7,2.13-5.32,3.08-8,.89-2.54,1.62-5.13,2.39-7.71.19-.62,0-1.43.36-1.92,3.23-4.67,3.46-10.48,5.95-15.42.42-.83,1-1.55,1.52-2.35a11.7,11.7,0,0,0,1.07-2.17c.5-1.5.81-3.06,1.33-4.55,1.2-3.41,2.72-6.73,3.66-10.2s1.35-7.05,2-10.59c.08-.45-.12-1.19.1-1.33,2.11-1.29,1.68-3.83,2.84-5.56.51-.76.93-1.84,1.66-2.14,3.42-1.4,5.11-4.72,7.88-6.85,2.36-1.81,5.75-2.17,8.09-.27.83.67,1.91,1,2.79,1.66.64.46,1.5,1,1.64,1.69a7.48,7.48,0,0,0,3.28,4.75,3.82,3.82,0,0,1,1.73,3.89,22.19,22.19,0,0,1-1.63,6.19c-.6,1.19-.51,2.71-.82,4.07-.13.56-.41,1.44-.79,1.54-3.21.86-3.39,3.76-4.27,6.16-2,5.5-3.87,11.06-6,16.52-1.92,4.95-4.15,9.77-6.12,14.69-.75,1.88-1.08,3.92-1.73,5.84-1.52,4.49-3.6,8.74-5,13.32a86.29,86.29,0,0,0-3,10.78c-.56,3.28-1.94,6.42-2.81,9.66a7.74,7.74,0,0,0,.22,2.59c.83-.19,1.89-.12,2.45-.61,3.49-3.07,7-6.08,9.34-10.29,1-1.82,2.85-3.2,3.7-5.06,1.23-2.72,3.27-4.66,5.12-6.83,1.47-1.72,2.68-3.66,4-5.5.27-.38.43-1,.79-1.14,3.5-1.73,4.21-5.46,6.1-8.34q2.13-3.25,4.4-6.41c.59-.83,1.47-1.46,2-2.31,2.81-4.48,5.6-9,8.29-13.52,1.32-2.24,2.39-4.54,4.5-6.31,1.22-1,1.5-3.11,2.56-4.43,4-5,6.1-11,8.86-16.6a63.21,63.21,0,0,1,4.24-6.53c2.54-3.88,6.18-6.66,9.61-9.65,1.54-1.34,2.9-2.89,4.46-4.2a2.2,2.2,0,0,1,2-.33,17.68,17.68,0,0,1,4.23,3.38c1.92,2.35,3.52,5,5.21,7.48a2.92,2.92,0,0,1,.59,1.52c-.06,3,0,5.93-2.16,8.42-.88,1-1.23,2.48-2,3.64-1.67,2.59-3.47,5.09-5.13,7.69a22.14,22.14,0,0,0-1.49,3.24c-.15.34-.11.77-.29,1.09-2.22,4.12-4.51,8.2-6.7,12.34-2.35,4.44-4.7,8.89-6.89,13.41-1.71,3.52-3.29,7.11-4.75,10.74-1.11,2.75-1.8,5.66-2.92,8.4-1.28,3.13-1.71,6.55-3,9.57-2.66,6.47-2.69,13.21-3.18,19.92-.12,1.62.73,3.41,1.47,5,.56,1.18,2.26,1.05,3.39.3,2.14-1.42,2.65-3.83,3.28-5.91a24.68,24.68,0,0,1,3.16-7c1.6-2.37,2.47-5.23,3.76-7.83,1.55-3.13,3.23-6.21,4.82-9.33a4.36,4.36,0,0,0,.64-1.83c0-2.27,2.53-2.78,3.05-4.48s.54-3.25,1.88-4.77a50.73,50.73,0,0,0,5-7.74c1.88-3.16,3.66-6.39,5.49-9.58,3.34-5.81,6.68-11.63,10.07-17.41.65-1.11,1.58-2,2.31-3.11a10,10,0,0,0,2.18-4.71c.2-1.68,1.78-3.17,2.62-4.81,1.18-2.3,2.26-4.66,3.33-7,.6-1.32.43-3,2-3.85.4-.22.52-1.09.64-1.68.42-2.2.78-4.4,1.17-6.61a7.46,7.46,0,0,0,.3-1.93,5.59,5.59,0,0,1,2.2-5.15,8.26,8.26,0,0,0,1.38-2.06c.2-.32.25-.78.51-1,3.81-2.8,6.19-7.12,10.5-9.45,3.14-1.71,4.26-1.81,6.65.9,2,2.29,4.5,4.36,5.84,7s1.6,5.71,2,8.65a18.78,18.78,0,0,1-.59,5.27,2.56,2.56,0,0,1-.92,1.68c-1.46.81-2.32,1.82-2.15,3.58a1.26,1.26,0,0,1-.47,1c-2.15,1.45-2.76,3.79-3.8,6-1.91,3.95-4.11,7.76-6.31,11.56s-4.52,7.52-6.79,11.27c-3,5-6.14,9.93-9,15-1,1.76-1.46,3.74-3.31,5-.52.34-.61,1.31-1,2-.87,1.62-1.45,3.57-2.72,4.77-2.64,2.49-3.45,6-5.46,8.79a21,21,0,0,0-2.07,3.84c-.31.71-.64,1.86-.3,2.28a2.63,2.63,0,0,0,2.29.42A9.8,9.8,0,0,0,823,449c2.2-1.69,4.28-3.53,6.4-5.32a4.92,4.92,0,0,0,1.16-1.22c2.09-3.7,5.49-6.33,8-9.62,3.29-4.39,7.5-7.73,11.12-11.71a93.46,93.46,0,0,1,13.89-12.86c1-.75,1.64-2.06,2.62-2.9,2.25-1.94,4.54-3.86,7-5.57a3.88,3.88,0,0,1,4.52,0c2.07,1.42,4.06,2.93,4.44,5.74a3.65,3.65,0,0,0,1.11,1.92c3,2.84,2.65,6.72,1.78,9.8s-3.21,5.91-6,8.17a45.85,45.85,0,0,0-7.49,7c-1.72,2.23-4.11,3.94-6.2,5.89-.4.37-.79.74-1.18,1.13L861,442.6c-.2.2-.49.35-.6.58-1.28,2.81-3.95,5-3.62,8.54.29,3.15.21,6.35.78,9.44a12.2,12.2,0,0,0,2.54,5.19,80,80,0,0,0,7.07,7.52,57.58,57.58,0,0,0,15.49,10.42c4.81,2.25,9.56,4.65,14.39,6.85,2.09,1,4.31,1.61,6.48,2.35,4.62,1.58,9.2,3.21,12.89,6.6a19.53,19.53,0,0,0,1.62,1.1c.44.33,1.08.64,1.23,1.09a59,59,0,0,1,1.85,6.56c.39,1.94-.46,3.32-2.28,4.35a31.06,31.06,0,0,1-8.23,3.58,18.11,18.11,0,0,1-4.42.21,10.39,10.39,0,0,1-3.31-.49c-.5-.19-2.38.75-1.49-1.24a3.34,3.34,0,0,0-1.24-.16,26,26,0,0,1-11.9.45,56.6,56.6,0,0,1-6.79-2.25c-2.84-.92-5.72-1.75-8.55-2.7-.35-.12-.56-.67-.83-1l.9-.37-.1-.21Zm44-4.32-.11-.21-.38.21a1.2,1.2,0,0,0,.12.2A3.07,3.07,0,0,0,916.13,505.34Z"/><path d="M644.87,506.76a11.43,11.43,0,0,0-2.6.82,7.55,7.55,0,0,1-6.48.52c-4-1.47-8-3-11.1-6.31-1.12-1.21-1.23-2.06-.31-3.07,1.4-1.52,2.81-2.91,3.18-5.14.13-.79,1.66-1.29,2-2.13,1.53-3.89,4.58-6.49,7.39-9.35a6.61,6.61,0,0,1,6.13-2.06c3.29.8,5.58-.63,8.09-2.06,1.85-1.06,3.7-2.14,5.64-3,2.3-1,4.44-.1,5.59,2.22.33.67.56,1.54,1.11,1.91,2.76,1.87,2.44,4.53,1.74,7.08-.55,2-.79,4.25-2.8,5.61a2.81,2.81,0,0,0-.93,1.7c-1,5.13-5,7.13-9.13,9-1.74.77-3.37,1.21-4.07,3.4-.25.78-2.08,1-3.18,1.55Z"/><path d="M699.22,562.28c.05,0,.05-.06,0-.18l.61,1.25-.43.13Z"/><path d="M710.72,563l.81.36c-.16.16-.32.43-.5.45a2,2,0,0,1-.75-.23Z"/><path d="M531.92,304l1.3.9-.55.37c-.22-.41-.45-.83-.68-1.25Z"/><path d="M606.52,569.74l-.2,1.36-.45-.1c.23-.4.46-.79.69-1.2Z"/><path d="M516.85,580.4c.09.12.26.24.24.35s-.18.26-.28.38l-.35-.45Z"/></svg>